<mxfile host="app.diagrams.net" modified="2024-01-02T04:17:52.086Z" agent="Mozilla/5.0 (Windows NT 10.0; Win64; x64) AppleWebKit/537.36 (KHTML, like Gecko) Chrome/120.0.0.0 Safari/537.36" etag="541L2SbsYlQ1oM9I4kt2" version="22.1.16" type="onedrive">
  <diagram id="C5RBs43oDa-KdzZeNtuy" name="Page-1">
    <mxGraphModel dx="1434" dy="772" grid="1" gridSize="10" guides="1" tooltips="1" connect="1" arrows="1" fold="1" page="1" pageScale="1" pageWidth="827" pageHeight="1169" math="0" shadow="0">
      <root>
        <mxCell id="WIyWlLk6GJQsqaUBKTNV-0" />
        <mxCell id="WIyWlLk6GJQsqaUBKTNV-1" parent="WIyWlLk6GJQsqaUBKTNV-0" />
        <mxCell id="zkfFHV4jXpPFQw0GAbJ--0" value="Cart" style="swimlane;fontStyle=1;align=center;verticalAlign=top;childLayout=stackLayout;horizontal=1;startSize=26;horizontalStack=0;resizeParent=1;resizeLast=0;collapsible=1;marginBottom=0;rounded=0;shadow=0;strokeWidth=1;" parent="WIyWlLk6GJQsqaUBKTNV-1" vertex="1">
          <mxGeometry x="80" y="40" width="280" height="208" as="geometry">
            <mxRectangle x="230" y="140" width="160" height="26" as="alternateBounds" />
          </mxGeometry>
        </mxCell>
        <mxCell id="zkfFHV4jXpPFQw0GAbJ--1" value="- cartItems : List&lt;Product&gt;" style="text;align=left;verticalAlign=top;spacingLeft=4;spacingRight=4;overflow=hidden;rotatable=0;points=[[0,0.5],[1,0.5]];portConstraint=eastwest;" parent="zkfFHV4jXpPFQw0GAbJ--0" vertex="1">
          <mxGeometry y="26" width="280" height="26" as="geometry" />
        </mxCell>
        <mxCell id="zkfFHV4jXpPFQw0GAbJ--2" value="- vendingMachine : VendingMachine" style="text;align=left;verticalAlign=top;spacingLeft=4;spacingRight=4;overflow=hidden;rotatable=0;points=[[0,0.5],[1,0.5]];portConstraint=eastwest;rounded=0;shadow=0;html=0;" parent="zkfFHV4jXpPFQw0GAbJ--0" vertex="1">
          <mxGeometry y="52" width="280" height="26" as="geometry" />
        </mxCell>
        <mxCell id="zkfFHV4jXpPFQw0GAbJ--4" value="" style="line;html=1;strokeWidth=1;align=left;verticalAlign=middle;spacingTop=-1;spacingLeft=3;spacingRight=3;rotatable=0;labelPosition=right;points=[];portConstraint=eastwest;" parent="zkfFHV4jXpPFQw0GAbJ--0" vertex="1">
          <mxGeometry y="78" width="280" height="12" as="geometry" />
        </mxCell>
        <mxCell id="zkfFHV4jXpPFQw0GAbJ--5" value="+ Cart()&#xa;+ AddItemToCart(Product) :  void&#xa;+ RemoveItemFromCart(Product) :  void&#xa;+ ClearCart() : void&#xa;+ ItemsInCart() : List of Products[0..*]" style="text;align=left;verticalAlign=top;spacingLeft=4;spacingRight=4;overflow=hidden;rotatable=0;points=[[0,0.5],[1,0.5]];portConstraint=eastwest;" parent="zkfFHV4jXpPFQw0GAbJ--0" vertex="1">
          <mxGeometry y="90" width="280" height="74" as="geometry" />
        </mxCell>
        <mxCell id="_02wvb6YRf9d8iaJhXBY-5" value="VendingMachine" style="swimlane;fontStyle=1;align=center;verticalAlign=top;childLayout=stackLayout;horizontal=1;startSize=26;horizontalStack=0;resizeParent=1;resizeParentMax=0;resizeLast=0;collapsible=1;marginBottom=0;whiteSpace=wrap;html=1;" vertex="1" parent="WIyWlLk6GJQsqaUBKTNV-1">
          <mxGeometry x="414" y="40" width="316" height="210" as="geometry" />
        </mxCell>
        <mxCell id="_02wvb6YRf9d8iaJhXBY-6" value="- vmProducts : List&amp;lt;Product&amp;gt;" style="text;strokeColor=none;fillColor=none;align=left;verticalAlign=top;spacingLeft=4;spacingRight=4;overflow=hidden;rotatable=0;points=[[0,0.5],[1,0.5]];portConstraint=eastwest;whiteSpace=wrap;html=1;" vertex="1" parent="_02wvb6YRf9d8iaJhXBY-5">
          <mxGeometry y="26" width="316" height="26" as="geometry" />
        </mxCell>
        <mxCell id="_02wvb6YRf9d8iaJhXBY-7" value="" style="line;strokeWidth=1;fillColor=none;align=left;verticalAlign=middle;spacingTop=-1;spacingLeft=3;spacingRight=3;rotatable=0;labelPosition=right;points=[];portConstraint=eastwest;strokeColor=inherit;" vertex="1" parent="_02wvb6YRf9d8iaJhXBY-5">
          <mxGeometry y="52" width="316" height="8" as="geometry" />
        </mxCell>
        <mxCell id="_02wvb6YRf9d8iaJhXBY-8" value="+ VendingMachine()&lt;br&gt;+ VendingMachine(List of Products [n])&lt;br&gt;+ AddProduct(Product) : void&lt;br&gt;+ AddProducts(List of Products[0..*]) : void&lt;br&gt;+ GetProduct(string) : Product&lt;br&gt;+ RemoveProduct(Product) : void" style="text;strokeColor=none;fillColor=none;align=left;verticalAlign=top;spacingLeft=4;spacingRight=4;overflow=hidden;rotatable=0;points=[[0,0.5],[1,0.5]];portConstraint=eastwest;whiteSpace=wrap;html=1;" vertex="1" parent="_02wvb6YRf9d8iaJhXBY-5">
          <mxGeometry y="60" width="316" height="150" as="geometry" />
        </mxCell>
        <mxCell id="_02wvb6YRf9d8iaJhXBY-9" value="Product" style="swimlane;fontStyle=1;align=center;verticalAlign=top;childLayout=stackLayout;horizontal=1;startSize=26;horizontalStack=0;resizeParent=1;resizeParentMax=0;resizeLast=0;collapsible=1;marginBottom=0;whiteSpace=wrap;html=1;" vertex="1" parent="WIyWlLk6GJQsqaUBKTNV-1">
          <mxGeometry x="80" y="320" width="280" height="200" as="geometry" />
        </mxCell>
        <mxCell id="_02wvb6YRf9d8iaJhXBY-10" value="- _name : string = string.Empty&lt;br&gt;- _price : decimal = 0&lt;br&gt;- _quantity : uint = 0" style="text;strokeColor=none;fillColor=none;align=left;verticalAlign=top;spacingLeft=4;spacingRight=4;overflow=hidden;rotatable=0;points=[[0,0.5],[1,0.5]];portConstraint=eastwest;whiteSpace=wrap;html=1;" vertex="1" parent="_02wvb6YRf9d8iaJhXBY-9">
          <mxGeometry y="26" width="280" height="54" as="geometry" />
        </mxCell>
        <mxCell id="_02wvb6YRf9d8iaJhXBY-11" value="" style="line;strokeWidth=1;fillColor=none;align=left;verticalAlign=middle;spacingTop=-1;spacingLeft=3;spacingRight=3;rotatable=0;labelPosition=right;points=[];portConstraint=eastwest;strokeColor=inherit;" vertex="1" parent="_02wvb6YRf9d8iaJhXBY-9">
          <mxGeometry y="80" width="280" height="8" as="geometry" />
        </mxCell>
        <mxCell id="_02wvb6YRf9d8iaJhXBY-12" value="+ Product(string, decimal, uint)&lt;br&gt;+ Name : string&lt;br&gt;+ Price : decimal&lt;br&gt;+ Quantity : uint&lt;br&gt;+ ToString() : string &amp;lt;&amp;lt;override&amp;gt;&amp;gt;" style="text;strokeColor=none;fillColor=none;align=left;verticalAlign=top;spacingLeft=4;spacingRight=4;overflow=hidden;rotatable=0;points=[[0,0.5],[1,0.5]];portConstraint=eastwest;whiteSpace=wrap;html=1;" vertex="1" parent="_02wvb6YRf9d8iaJhXBY-9">
          <mxGeometry y="88" width="280" height="112" as="geometry" />
        </mxCell>
        <mxCell id="_02wvb6YRf9d8iaJhXBY-13" value="Utilities" style="swimlane;fontStyle=1;align=center;verticalAlign=top;childLayout=stackLayout;horizontal=1;startSize=26;horizontalStack=0;resizeParent=1;resizeParentMax=0;resizeLast=0;collapsible=1;marginBottom=0;whiteSpace=wrap;html=1;" vertex="1" parent="WIyWlLk6GJQsqaUBKTNV-1">
          <mxGeometry x="414" y="320" width="316" height="70" as="geometry" />
        </mxCell>
        <mxCell id="_02wvb6YRf9d8iaJhXBY-15" value="" style="line;strokeWidth=1;fillColor=none;align=left;verticalAlign=middle;spacingTop=-1;spacingLeft=3;spacingRight=3;rotatable=0;labelPosition=right;points=[];portConstraint=eastwest;strokeColor=inherit;" vertex="1" parent="_02wvb6YRf9d8iaJhXBY-13">
          <mxGeometry y="26" width="316" height="8" as="geometry" />
        </mxCell>
        <mxCell id="_02wvb6YRf9d8iaJhXBY-16" value="&lt;u&gt;+ LoadProducts(string) : List of Products[n]&lt;br&gt;&lt;/u&gt;" style="text;strokeColor=none;fillColor=none;align=left;verticalAlign=top;spacingLeft=4;spacingRight=4;overflow=hidden;rotatable=0;points=[[0,0.5],[1,0.5]];portConstraint=eastwest;whiteSpace=wrap;html=1;" vertex="1" parent="_02wvb6YRf9d8iaJhXBY-13">
          <mxGeometry y="34" width="316" height="36" as="geometry" />
        </mxCell>
      </root>
    </mxGraphModel>
  </diagram>
</mxfile>
